<mxfile host="app.diagrams.net" modified="2024-01-24T06:55:51.213Z" agent="Mozilla/5.0 (Windows NT 10.0; Win64; x64) AppleWebKit/537.36 (KHTML, like Gecko) Chrome/119.0.0.0 Safari/537.36" version="21.1.7" etag="bTP4_pmVviCv-BXulT--" type="github">
  <diagram name="第 1 页" id="0-_Q0tWd4fBetBlo0_ti">
    <mxGraphModel>
      <root>
        <mxCell id="0" />
        <mxCell id="1" parent="0" />
      </root>
    </mxGraphModel>
  </diagram>
</mxfile>
